<svg width="100" height="100" viewBox="0 0 100 100" xmlns="http://www.w3.org/2000/svg">
	<radialGradient cx="50%" cy="50%" r="100%" id="gradient">
		<stop offset="0%" style="stop-color:#222" />
		<stop offset="100%" style="stop-color:#111" />
	</radialGradient>
	<circle cx="50" cy="50" r="45" fill="url(#gradient)" stroke="white" />
	<g transform="translate(60, 45) scale(8) rotate(-40)" opacity="0.01">
		<path d="M 0 -2 L -5 -1 Q -9 0 -5 1 L 0 2 A 1 1 0 0 0 0 -2 Z" fill="white" />
	</g>
	<g transform="translate(60, 45) scale(7.5) rotate(-40)" opacity="0.02">
		<path d="M 0 -2 L -5 -1 Q -9 0 -5 1 L 0 2 A 1 1 0 0 0 0 -2 Z" fill="white" />
	</g>
	<g transform="translate(60, 45) scale(6) rotate(-40)">
		<path d="M 0 -2 L -5 -1 Q -9 0 -5 1 L 0 2 Z" fill="white" opacity="0.2" />
		<circle cx="0" cy="0" r="2" fill="white" />
	</g>
</svg>